<svg xmlns="http://www.w3.org/2000/svg" width="360" height="240" viewBox="0 0 360 240"><title>Minh họa món chính — portfolio</title><rect width="360" height="240" fill="#eeeae5"/><ellipse cx="180" cy="151" rx="131" ry="65" fill="#d4cec7"/><ellipse cx="180" cy="130" rx="130" ry="65" fill="#fffdf5"/><ellipse cx="180" cy="130" rx="107" ry="49" fill="#f1eadc"/><path d="M97 98q45-28 98 2l-15 52q-53 24-89-6z" fill="#a75f3d"/><path d="M107 110l70 24m-65-5l55 19m-38-42l54 23" stroke="#70432e" stroke-width="5" stroke-linecap="round"/><g fill="#54835a"><circle cx="236" cy="109" r="19"/><circle cx="250" cy="134" r="18"/><circle cx="220" cy="140" r="19"/></g><g fill="#e6a554"><path d="M200 98l20-18 16 9-17 24z"/><path d="M205 160l21-10 18 13-24 14z"/></g><path d="M118 80q30-17 61 3" stroke="#7b9552" stroke-width="4" fill="none"/><circle cx="118" cy="80" r="5" fill="#7b9552"/></svg>
